<?xml version="1.0" standalone="no"?>
<!DOCTYPE svg PUBLIC "-//W3C//DTD SVG 20010904//EN"
 "http://www.w3.org/TR/2001/REC-SVG-20010904/DTD/svg10.dtd">
<svg version="1.0" xmlns="http://www.w3.org/2000/svg"
 width="700.000000pt" height="700.000000pt" viewBox="0 0 700.000000 700.000000"
 preserveAspectRatio="xMidYMid meet">
<metadata>
Created by potrace 1.14, written by Peter Selinger 2001-2017
</metadata>
<g transform="translate(0.000000,700.000000) scale(0.100000,-0.100000)"
fill="#000000" stroke="none">
<path d="M840 6992 c-45 -21 -71 -47 -80 -82 -12 -44 -9 -53 40 -140 21 -36
50 -87 65 -115 15 -27 72 -129 126 -226 55 -97 99 -184 99 -194 0 -41 -95
-142 -169 -180 -81 -41 -194 -63 -219 -43 -7 6 -89 139 -183 295 -94 156 -182
291 -196 300 -13 9 -42 16 -65 16 -35 0 -47 -6 -70 -33 -64 -78 -141 -264
-156 -380 -9 -69 -9 -231 0 -290 45 -291 242 -553 523 -693 77 -39 180 -73
247 -82 84 -11 104 -18 188 -63 192 -103 419 -250 610 -395 86 -66 208 -165
230 -187 3 -3 43 -39 90 -80 83 -73 166 -152 522 -501 l178 -174 -36 -40 c-20
-22 -65 -71 -99 -110 -35 -38 -72 -79 -82 -91 -10 -12 -52 -58 -93 -104 -41
-46 -83 -92 -93 -104 -10 -12 -33 -37 -50 -56 -18 -19 -88 -98 -156 -175 -69
-77 -148 -165 -175 -195 -87 -94 -149 -163 -211 -235 -33 -37 -65 -73 -70 -79
-6 -6 -55 -60 -109 -121 -54 -60 -131 -146 -171 -190 -40 -44 -114 -127 -165
-185 -52 -58 -96 -107 -99 -110 -3 -3 -42 -45 -86 -95 -44 -49 -82 -92 -85
-95 -3 -3 -59 -66 -124 -140 -66 -74 -129 -144 -140 -156 -12 -12 -50 -54 -86
-95 -84 -95 -146 -164 -247 -275 -156 -172 -187 -216 -218 -309 -37 -110 -24
-268 30 -374 35 -70 226 -271 312 -329 67 -46 153 -73 238 -77 99 -5 151 6
240 50 84 42 96 53 250 225 66 74 122 137 125 140 3 3 39 43 80 90 41 47 81
92 90 101 8 8 42 46 75 83 33 38 69 78 80 90 11 13 52 58 90 101 39 43 79 89
90 101 56 62 91 100 200 224 66 74 127 142 135 150 14 15 124 138 163 184 10
12 35 39 55 61 20 22 71 78 112 125 41 47 80 90 85 96 6 6 42 46 80 89 39 43
75 83 80 89 6 6 50 56 99 111 49 55 92 102 95 105 3 3 35 39 71 80 36 41 78
89 95 106 16 18 41 45 54 60 21 25 145 166 176 200 40 44 167 185 191 212 l29
33 416 -418 c491 -494 571 -586 885 -1028 238 -334 395 -574 399 -612 51 -415
329 -721 740 -813 84 -18 284 -21 317 -4 34 18 68 69 68 103 0 20 -60 135
-120 231 -6 8 -61 101 -123 207 l-114 192 20 33 c35 57 117 129 181 159 57 27
162 49 196 41 8 -2 90 -132 181 -290 180 -311 201 -336 262 -323 70 16 91 38
151 157 112 223 123 506 30 741 -127 321 -425 552 -759 588 -39 4 -70 14 -90
29 -16 13 -34 25 -40 27 -18 7 -316 210 -475 323 -449 319 -555 410 -1058 910
-243 242 -441 443 -440 447 2 4 35 42 74 85 39 44 113 126 164 184 52 58 112
124 133 147 22 23 46 52 54 63 18 26 28 25 91 -5 86 -41 204 -67 348 -74 124
-6 134 -9 173 -36 23 -15 44 -32 47 -36 2 -4 -7 -24 -21 -45 -14 -21 -28 -48
-32 -62 -9 -36 3 -135 20 -169 9 -16 125 -139 258 -273 284 -284 299 -294 439
-295 66 0 95 5 131 21 34 16 163 139 518 495 540 540 525 521 525 669 0 133
-19 161 -297 439 -128 127 -243 239 -256 248 -13 9 -47 22 -76 28 -58 14 -114
1 -168 -37 -36 -26 -62 -16 -100 39 -24 35 -28 52 -32 136 -5 106 -33 243 -66
334 -30 79 -103 197 -158 257 -113 120 -614 617 -690 683 -151 132 -324 232
-566 327 -266 105 -457 141 -750 141 -227 0 -342 -15 -632 -80 -267 -61 -884
-301 -914 -356 -28 -54 -17 -111 31 -154 20 -18 38 -20 199 -22 557 -5 716
-40 967 -210 142 -95 332 -272 382 -355 96 -160 106 -345 28 -522 -28 -63 -76
-130 -96 -134 -8 -1 -37 -26 -65 -55 -66 -69 -126 -136 -305 -337 -41 -46 -82
-91 -90 -100 -8 -9 -35 -38 -58 -65 l-44 -49 -291 294 c-328 331 -332 336
-481 513 -167 200 -294 376 -422 587 -130 212 -162 279 -169 348 -3 35 -17
103 -31 150 -93 319 -340 559 -664 642 -86 22 -309 36 -340 22z m321 -263 c95
-31 205 -96 275 -164 39 -38 105 -132 137 -195 53 -106 77 -213 72 -326 -5
-113 -18 -167 -62 -263 -115 -254 -350 -407 -628 -409 -230 -1 -424 93 -559
272 -113 150 -167 378 -130 544 6 28 9 52 7 52 -2 0 -1 5 2 10 4 6 64 -87 133
-206 73 -125 139 -226 155 -238 25 -18 42 -21 125 -20 53 0 113 3 132 6 136
22 259 84 359 181 66 64 100 112 140 202 32 69 34 111 9 142 -9 11 -93 154
-166 282 -13 25 -38 67 -53 93 -16 27 -29 51 -29 53 0 9 15 5 81 -16z m2854
-93 c28 -4 70 -9 95 -12 238 -32 607 -172 790 -302 92 -65 126 -97 491 -462
330 -330 366 -372 404 -481 9 -24 18 -60 21 -79 3 -19 7 -46 9 -58 2 -13 5
-63 6 -110 2 -108 18 -176 54 -238 39 -66 111 -142 159 -166 79 -40 196 -33
253 16 l28 24 217 -219 c128 -128 219 -227 219 -239 1 -11 2 -27 2 -35 0 -8
-1 -22 -2 -31 0 -9 -200 -215 -443 -459 -475 -474 -468 -468 -538 -439 -16 7
-124 107 -239 221 l-209 208 26 34 c24 31 27 43 27 115 0 108 -26 160 -119
238 -85 71 -152 97 -265 104 -47 2 -115 7 -151 10 -36 3 -65 6 -65 5 0 -5
-107 32 -136 47 -72 37 -110 71 -380 340 l-277 275 49 74 c102 156 146 360
118 538 -30 189 -113 333 -279 486 -290 266 -530 393 -850 448 l-45 7 74 23
c89 27 81 25 211 56 58 14 121 27 140 30 20 3 45 7 56 9 144 28 418 39 549 22z
m-1914 -1302 c40 -54 78 -104 84 -111 5 -6 24 -29 40 -50 143 -180 252 -298
595 -645 140 -142 255 -263 255 -267 0 -7 -80 -100 -165 -191 -8 -8 -42 -46
-74 -83 -32 -37 -63 -66 -68 -65 -5 2 -154 147 -331 323 -344 341 -360 357
-507 481 -181 153 -587 444 -619 444 -5 0 -12 4 -15 9 -3 5 31 28 76 51 45 23
100 54 122 70 120 83 228 209 295 344 l43 87 98 -149 c53 -82 130 -194 171
-248z m2227 -1075 c-3 -6 -83 -97 -153 -175 -11 -12 -49 -55 -85 -95 -36 -41
-89 -101 -118 -134 -30 -33 -84 -89 -121 -125 -36 -36 -98 -101 -136 -145 -76
-86 -234 -263 -250 -281 -50 -53 -132 -150 -140 -164 -8 -15 -84 -103 -150
-174 -6 -6 -42 -47 -80 -90 -39 -44 -77 -87 -85 -96 -8 -9 -49 -54 -90 -100
-41 -46 -79 -88 -85 -94 -10 -11 -221 -248 -285 -321 -19 -22 -58 -64 -86 -95
-27 -30 -90 -100 -139 -155 -48 -55 -121 -136 -160 -180 -151 -167 -272 -303
-340 -380 -38 -44 -79 -89 -90 -101 -24 -25 -52 -57 -160 -179 -44 -49 -82
-92 -85 -95 -3 -3 -59 -66 -125 -140 -66 -74 -122 -137 -125 -140 -3 -3 -61
-68 -130 -145 -68 -77 -131 -147 -139 -156 -9 -9 -45 -49 -81 -90 -117 -133
-149 -155 -239 -166 -68 -8 -137 17 -197 73 -193 178 -217 212 -217 304 0 33
7 72 19 97 20 42 110 153 125 153 5 0 48 -39 96 -87 49 -47 101 -92 117 -98
57 -24 137 21 151 85 10 47 -10 79 -109 179 l-98 100 23 28 c13 16 41 47 62
70 21 22 44 49 52 59 13 18 21 11 123 -88 60 -60 113 -108 118 -109 5 0 19 -2
31 -5 73 -13 139 70 119 149 -3 13 -53 72 -111 132 -58 59 -105 109 -105 112
0 4 154 179 169 193 3 3 40 43 81 90 41 47 81 92 90 101 8 9 40 44 70 79 30
35 62 70 71 79 13 14 205 229 294 330 17 19 39 44 50 55 11 12 54 60 95 106
41 47 77 87 80 90 3 3 59 66 125 140 66 74 122 137 125 140 3 3 55 61 115 130
61 69 115 130 121 135 6 6 51 55 99 110 49 55 92 102 95 105 3 3 75 84 160
180 85 96 159 180 165 186 5 6 39 43 75 84 36 40 70 78 76 84 5 6 52 58 104
116 52 58 99 110 104 116 6 6 25 26 41 45 93 105 271 306 280 315 6 6 42 46
80 89 75 85 127 144 190 213 l39 43 243 -243 c134 -134 242 -246 241 -249z
m16 -1231 c432 -433 511 -507 666 -634 141 -114 489 -371 568 -419 10 -5 19
-12 22 -15 3 -4 42 -30 87 -60 l82 -53 -92 -47 c-172 -87 -280 -180 -376 -325
-46 -70 -101 -176 -101 -196 0 -26 -27 5 -110 126 l-90 129 89 91 c49 49 92
101 96 113 19 61 -27 136 -90 148 -47 9 -85 -12 -158 -87 -38 -38 -72 -69 -75
-69 -4 0 -25 26 -47 57 -22 31 -44 61 -50 67 -50 57 -51 47 14 112 87 86 104
146 58 205 -15 19 -67 46 -84 43 -7 -1 -22 -2 -34 -3 -11 0 -49 -28 -84 -62
-35 -33 -65 -56 -66 -51 -11 28 -155 179 -534 560 -231 232 -421 426 -423 430
-1 4 8 18 20 32 13 14 57 63 98 110 41 47 89 101 107 120 17 19 42 47 55 62
13 15 27 27 31 27 5 1 194 -185 421 -411z m1827 -1382 c21 -3 72 -17 114 -31
339 -113 534 -477 450 -834 -5 -19 -29 17 -133 195 -90 154 -136 225 -159 240
-28 19 -44 21 -150 19 -132 -2 -214 -21 -303 -68 -139 -75 -243 -190 -304
-336 -21 -49 -25 -69 -18 -90 5 -14 49 -93 97 -176 48 -82 96 -166 107 -185
11 -19 29 -50 40 -68 11 -18 18 -36 15 -39 -7 -6 -128 32 -172 54 -245 126
-402 390 -388 650 16 301 200 547 483 645 30 10 82 22 115 25 33 3 61 7 63 8
4 3 98 -2 143 -9z"/>
</g>
</svg>
